<svg width="135" height="50" viewBox="0 0 135 50" fill="none" xmlns="http://www.w3.org/2000/svg">
<path d="M3.6852 8.14H19.92C24.1032 8.14 27.4232 8.8704 29.88 10.3312C32.3368 11.792 33.5652 13.784 33.5652 16.3072C33.5652 18.4652 32.6854 20.3244 30.9258 21.8848C29.1662 23.412 26.8588 24.3914 24.0036 24.823C27.7884 25.1882 30.6768 26.068 32.6688 27.4624C34.6608 28.8236 35.6568 30.882 35.6568 33.6376C35.6568 36.6588 34.4118 38.9828 31.9218 40.6096C29.4318 42.2032 25.8296 43 21.1152 43H3.6852V8.14ZM18.0276 23.7274C21.3808 23.7274 23.9538 23.1298 25.7466 21.9346C27.5394 20.7062 28.4358 18.93 28.4358 16.606C28.4358 14.5476 27.5892 13.0204 25.896 12.0244C24.2028 11.0284 21.6298 10.5304 18.177 10.5304H8.8644V23.7274H18.0276ZM21.6132 40.6096C24.402 40.6096 26.5766 39.9788 28.137 38.7172C29.6974 37.4556 30.4776 35.6794 30.4776 33.3886C30.4776 30.965 29.3986 29.1556 27.2406 27.9604C25.1158 26.732 21.9452 26.1178 17.7288 26.1178H8.8644V40.6096H21.6132ZM38.1956 18.598H42.7772V23.827C43.408 22.001 44.404 20.59 45.7652 19.594C47.1596 18.598 48.8362 18.1 50.795 18.1C51.5586 18.1 52.123 18.1664 52.4882 18.2992L52.04 21.4864C51.542 21.2208 50.8448 21.088 49.9484 21.088C47.6908 21.088 45.9312 22.0342 44.6696 23.9266C43.408 25.819 42.7772 28.2094 42.7772 31.0978V43H38.1956V18.598ZM57.3318 15.5602C56.3358 15.5602 55.5224 15.278 54.8916 14.7136C54.2608 14.1492 53.9454 13.4022 53.9454 12.4726C53.9454 11.543 54.2608 10.796 54.8916 10.2316C55.5224 9.6672 56.3358 9.385 57.3318 9.385C58.3278 9.385 59.1412 9.6672 59.772 10.2316C60.4028 10.796 60.7182 11.543 60.7182 12.4726C60.7182 13.4022 60.4028 14.1492 59.772 14.7136C59.1412 15.278 58.3278 15.5602 57.3318 15.5602ZM55.041 18.598H59.6226V43H55.041V18.598ZM76.9703 43.498C74.4803 43.498 72.2559 42.9668 70.2971 41.9044C68.3715 40.8088 66.8609 39.2982 65.7653 37.3726C64.7029 35.447 64.1717 33.2558 64.1717 30.799C64.1717 28.2758 64.6863 26.068 65.7155 24.1756C66.7447 22.25 68.1889 20.756 70.0481 19.6936C71.9405 18.6312 74.1151 18.1 76.5719 18.1C78.7963 18.1 80.7717 18.5482 82.4981 19.4446C84.2245 20.3078 85.5691 21.5362 86.5319 23.1298V8.9866H91.1135V43H86.5319V38.5678C85.6023 40.1614 84.3075 41.3898 82.6475 42.253C81.0207 43.083 79.1283 43.498 76.9703 43.498ZM77.6177 41.506C79.3773 41.506 80.9211 41.0744 82.2491 40.2112C83.6103 39.3148 84.6561 38.0698 85.3865 36.4762C86.1501 34.8494 86.5319 32.9902 86.5319 30.8986C86.5319 28.7406 86.1501 26.8482 85.3865 25.2214C84.6561 23.5614 83.5937 22.2998 82.1993 21.4366C80.8381 20.5402 79.2611 20.092 77.4683 20.092C74.8123 20.092 72.6875 21.0548 71.0939 22.9804C69.5335 24.8728 68.7533 27.4458 68.7533 30.6994C68.7533 32.8574 69.1185 34.7498 69.8489 36.3766C70.5793 38.0034 71.6085 39.265 72.9365 40.1614C74.2977 41.0578 75.8581 41.506 77.6177 41.506ZM104.767 43.498C101.546 43.498 99.0894 42.8506 97.3962 41.5558C95.7362 40.261 94.9062 38.4184 94.9062 36.028C94.9062 33.4716 95.9188 31.5294 97.944 30.2014C99.9692 28.8402 102.924 28.1596 106.808 28.1596H114.079V26.3668C114.079 24.3416 113.465 22.7978 112.237 21.7354C111.008 20.673 109.232 20.1418 106.908 20.1418C104.717 20.1418 102.957 20.6564 101.629 21.6856C100.301 22.6816 99.521 24.1092 99.2886 25.9684H95.703C96.035 23.4452 97.197 21.503 99.189 20.1418C101.181 18.7806 103.837 18.1 107.157 18.1C110.875 18.1 113.714 18.8636 115.673 20.3908C117.632 21.8848 118.611 24.0594 118.611 26.9146V34.9822C118.611 37.8374 118.86 40.51 119.358 43H115.075C114.71 41.506 114.478 40.0784 114.378 38.7172C112.386 41.9044 109.182 43.498 104.767 43.498ZM105.912 41.5558C107.439 41.5558 108.817 41.2072 110.045 40.51C111.307 39.7796 112.286 38.8168 112.984 37.6216C113.714 36.4264 114.079 35.0984 114.079 33.6376V30.2014H108.053C105.132 30.2014 102.957 30.6828 101.53 31.6456C100.135 32.5752 99.438 34.0194 99.438 35.9782C99.438 37.8042 99.9858 39.1986 101.081 40.1614C102.177 41.091 103.787 41.5558 105.912 41.5558ZM124.802 8.9866H129.383V43H124.802V8.9866Z" fill="black"/>
</svg>
