<svg width="242" height="51" viewBox="0 0 242 51" fill="none" xmlns="http://www.w3.org/2000/svg">
<rect y="7.56934" width="34.86" height="34.86" rx="17.43" fill="black"/>
<path d="M62.0752 43.498C56.1324 43.498 51.5674 41.9376 48.3802 38.8168C45.193 35.696 43.5994 31.2306 43.5994 25.4206C43.5994 19.7434 45.1764 15.361 48.3304 12.2734C51.5176 9.1858 56.066 7.642 61.9756 7.642C66.7896 7.642 70.7072 8.6546 73.7284 10.6798C76.7496 12.705 78.5424 15.527 79.1068 19.1458H74.6248C74.0604 16.2906 72.6826 14.0662 70.4914 12.4726C68.3002 10.8458 65.5446 10.0324 62.2246 10.0324C57.9086 10.0324 54.5886 11.3604 52.2646 14.0164C49.9738 16.6724 48.8284 20.4738 48.8284 25.4206C48.8284 30.467 49.9904 34.3514 52.3144 37.0738C54.6384 39.763 57.975 41.1076 62.3242 41.1076C65.6442 41.1076 68.3832 40.3108 70.5412 38.7172C72.6992 37.1236 74.0604 34.8826 74.6248 31.9942H79.1068C78.5424 35.613 76.7496 38.435 73.7284 40.4602C70.7072 42.4854 66.8228 43.498 62.0752 43.498ZM91.2391 43.498C88.0187 43.498 85.5619 42.8506 83.8687 41.5558C82.2087 40.261 81.3787 38.4184 81.3787 36.028C81.3787 33.4716 82.3913 31.5294 84.4165 30.2014C86.4417 28.8402 89.3965 28.1596 93.2809 28.1596H100.552V26.3668C100.552 24.3416 99.9375 22.7978 98.7091 21.7354C97.4807 20.673 95.7045 20.1418 93.3805 20.1418C91.1893 20.1418 89.4297 20.6564 88.1017 21.6856C86.7737 22.6816 85.9935 24.1092 85.7611 25.9684H82.1755C82.5075 23.4452 83.6695 21.503 85.6615 20.1418C87.6535 18.7806 90.3095 18.1 93.6295 18.1C97.3479 18.1 100.186 18.8636 102.145 20.3908C104.104 21.8848 105.083 24.0594 105.083 26.9146V34.9822C105.083 37.8374 105.332 40.51 105.83 43H101.548C101.182 41.506 100.95 40.0784 100.85 38.7172C98.8585 41.9044 95.6547 43.498 91.2391 43.498ZM92.3845 41.5558C93.9117 41.5558 95.2895 41.2072 96.5179 40.51C97.7795 39.7796 98.7589 38.8168 99.4561 37.6216C100.186 36.4264 100.552 35.0984 100.552 33.6376V30.2014H94.5259C91.6043 30.2014 89.4297 30.6828 88.0021 31.6456C86.6077 32.5752 85.9105 34.0194 85.9105 35.9782C85.9105 37.8042 86.4583 39.1986 87.5539 40.1614C88.6495 41.091 90.2597 41.5558 92.3845 41.5558ZM112.22 20.6398H107.19L107.788 18.598H112.22V15.9586C112.22 13.7674 112.851 12.0908 114.113 10.9288C115.374 9.7668 117.217 9.1858 119.64 9.1858C121.433 9.1858 122.894 9.4846 124.023 10.0822L123.375 12.1738C122.678 11.543 121.798 11.2276 120.736 11.2276C119.508 11.2276 118.545 11.6094 117.848 12.373C117.15 13.1034 116.802 14.1326 116.802 15.4606V18.598H123.575L123.027 20.6398H116.802V43H112.22V20.6398ZM132.429 43.498C130.271 43.498 128.661 42.9004 127.598 41.7052C126.536 40.51 126.005 38.6674 126.005 36.1774V20.6398H121.622L122.32 18.598H126.055L127.847 11.7256H130.586V18.598H137.409L136.762 20.6398H130.586V36.8746C130.586 39.8958 131.715 41.4064 133.973 41.4064C135.168 41.4064 136.33 41.091 137.459 40.4602V42.6016C136.064 43.1992 134.388 43.498 132.429 43.498ZM148.983 43.498C145.762 43.498 143.305 42.8506 141.612 41.5558C139.952 40.261 139.122 38.4184 139.122 36.028C139.122 33.4716 140.135 31.5294 142.16 30.2014C144.185 28.8402 147.14 28.1596 151.024 28.1596H158.295V26.3668C158.295 24.3416 157.681 22.7978 156.453 21.7354C155.224 20.673 153.448 20.1418 151.124 20.1418C148.933 20.1418 147.173 20.6564 145.845 21.6856C144.517 22.6816 143.737 24.1092 143.505 25.9684H139.919C140.251 23.4452 141.413 21.503 143.405 20.1418C145.397 18.7806 148.053 18.1 151.373 18.1C155.091 18.1 157.93 18.8636 159.889 20.3908C161.848 21.8848 162.827 24.0594 162.827 26.9146V34.9822C162.827 37.8374 163.076 40.51 163.574 43H159.291C158.926 41.506 158.694 40.0784 158.594 38.7172C156.602 41.9044 153.398 43.498 148.983 43.498ZM150.128 41.5558C151.655 41.5558 153.033 41.2072 154.261 40.51C155.523 39.7796 156.502 38.8168 157.2 37.6216C157.93 36.4264 158.295 35.0984 158.295 33.6376V30.2014H152.269C149.348 30.2014 147.173 30.6828 145.746 31.6456C144.351 32.5752 143.654 34.0194 143.654 35.9782C143.654 37.8042 144.202 39.1986 145.297 40.1614C146.393 41.091 148.003 41.5558 150.128 41.5558ZM167.723 18.598H172.304V22.8808C173.101 21.42 174.33 20.258 175.99 19.3948C177.683 18.5316 179.575 18.1 181.667 18.1C184.887 18.1 187.427 18.9466 189.286 20.6398C191.145 22.2998 192.075 24.5574 192.075 27.4126V43H187.493V26.9146C187.493 24.7566 186.896 23.0966 185.701 21.9346C184.505 20.7394 182.812 20.1418 180.621 20.1418C178.098 20.1418 176.073 20.9718 174.545 22.6318C173.051 24.2586 172.304 26.4166 172.304 29.1058V43H167.723V18.598ZM207.17 43.498C203.751 43.498 200.979 42.834 198.854 41.506C196.762 40.178 195.501 38.3188 195.069 35.9284H198.854C199.119 37.6548 199.983 39.016 201.443 40.012C202.937 40.9748 204.896 41.4562 207.32 41.4562C209.611 41.4562 211.437 40.9914 212.798 40.0618C214.192 39.1322 214.889 37.9038 214.889 36.3766C214.889 35.1482 214.292 34.1854 213.097 33.4882C211.901 32.7578 209.909 32.1602 207.121 31.6954C204.332 31.2306 202.107 30.716 200.447 30.1516C198.821 29.554 197.642 28.8402 196.912 28.0102C196.181 27.147 195.816 26.0846 195.816 24.823C195.816 22.7646 196.795 21.1378 198.754 19.9426C200.746 18.7142 203.518 18.1 207.071 18.1C210.524 18.1 213.312 18.764 215.437 20.092C217.595 21.3868 218.84 23.2128 219.172 25.57H215.387C215.089 23.8768 214.225 22.5488 212.798 21.586C211.37 20.6232 209.561 20.1418 207.37 20.1418C205.278 20.1418 203.585 20.5236 202.29 21.2872C201.028 22.0176 200.398 23.0136 200.398 24.2752C200.398 25.0388 200.613 25.653 201.045 26.1178C201.477 26.5826 202.257 26.9976 203.386 27.3628C204.548 27.728 206.257 28.1098 208.515 28.5082C212.366 29.1722 215.155 30.1018 216.881 31.297C218.608 32.459 219.471 34.0526 219.471 36.0778C219.471 38.4018 218.375 40.2278 216.184 41.5558C214.026 42.8506 211.022 43.498 207.17 43.498Z" fill="black"/>
</svg>
