<svg width="194" height="50" viewBox="0 0 194 50" fill="none" xmlns="http://www.w3.org/2000/svg">
<path d="M12.5994 43.498C8.9474 43.498 6.1254 42.751 4.1334 41.257C2.1414 39.7298 1.0624 37.5718 0.8964 34.783H5.6274C5.6938 36.941 6.3246 38.5512 7.5198 39.6136C8.7482 40.6428 10.458 41.1574 12.6492 41.1574C14.9068 41.1574 16.6166 40.51 17.7786 39.2152C18.9738 37.9204 19.5714 35.9948 19.5714 33.4384V8.14H24.7506V32.4424C24.7506 36.028 23.7048 38.767 21.6132 40.6594C19.5548 42.5518 16.5502 43.498 12.5994 43.498ZM42.1442 41.4562C44.4018 41.4562 46.2942 40.9084 47.8214 39.8128C49.3818 38.7172 50.3778 37.2232 50.8094 35.3308H54.5444C53.9136 37.8872 52.4694 39.8958 50.2118 41.3566C47.9542 42.7842 45.1986 43.498 41.945 43.498C39.2226 43.498 36.8322 42.9834 34.7738 41.9542C32.7486 40.925 31.1716 39.4642 30.0428 37.5718C28.9472 35.6462 28.3994 33.4218 28.3994 30.8986C28.3994 28.309 28.9472 26.0514 30.0428 24.1258C31.1384 22.2002 32.6988 20.7228 34.724 19.6936C36.7824 18.6312 39.1562 18.1 41.8454 18.1C45.8958 18.1 49.0498 19.1956 51.3074 21.3868C53.5982 23.578 54.7934 26.6656 54.893 30.6496H32.981V30.8986C32.981 34.1854 33.7778 36.775 35.3714 38.6674C36.965 40.5266 39.2226 41.4562 42.1442 41.4562ZM41.945 20.1418C39.455 20.1418 37.4464 20.8888 35.9192 22.3828C34.392 23.8436 33.4624 25.9186 33.1304 28.6078H50.5604C50.1952 25.8854 49.2656 23.7938 47.7716 22.333C46.3108 20.8722 44.3686 20.1418 41.945 20.1418ZM59.5685 8.9866H64.1501V43H59.5685V8.9866ZM71.2297 8.9866H75.8113V43H71.2297V8.9866ZM90.809 43.498C87.5886 43.498 85.1318 42.8506 83.4386 41.5558C81.7786 40.261 80.9486 38.4184 80.9486 36.028C80.9486 33.4716 81.9612 31.5294 83.9864 30.2014C86.0116 28.8402 88.9664 28.1596 92.8508 28.1596H100.122V26.3668C100.122 24.3416 99.5074 22.7978 98.279 21.7354C97.0506 20.673 95.2744 20.1418 92.9504 20.1418C90.7592 20.1418 88.9996 20.6564 87.6716 21.6856C86.3436 22.6816 85.5634 24.1092 85.331 25.9684H81.7454C82.0774 23.4452 83.2394 21.503 85.2314 20.1418C87.2234 18.7806 89.8794 18.1 93.1994 18.1C96.9178 18.1 99.7564 18.8636 101.715 20.3908C103.674 21.8848 104.653 24.0594 104.653 26.9146V34.9822C104.653 37.8374 104.902 40.51 105.4 43H101.118C100.752 41.506 100.52 40.0784 100.42 38.7172C98.4284 41.9044 95.2246 43.498 90.809 43.498ZM91.9544 41.5558C93.4816 41.5558 94.8594 41.2072 96.0878 40.51C97.3494 39.7796 98.3288 38.8168 99.026 37.6216C99.7564 36.4264 100.122 35.0984 100.122 33.6376V30.2014H94.0958C91.1742 30.2014 88.9996 30.6828 87.572 31.6456C86.1776 32.5752 85.4804 34.0194 85.4804 35.9782C85.4804 37.8042 86.0282 39.1986 87.1238 40.1614C88.2194 41.091 89.8296 41.5558 91.9544 41.5558ZM123.842 43.498C121.617 43.498 119.675 43.0664 118.015 42.2032C116.355 41.34 115.044 40.0784 114.081 38.4184V43H109.499V8.9866H114.081V23.2792C115.011 21.6524 116.355 20.3908 118.115 19.4944C119.874 18.5648 121.883 18.1 124.141 18.1C127.925 18.1 130.913 19.2288 133.105 21.4864C135.329 23.744 136.441 26.8316 136.441 30.7492C136.441 33.2724 135.91 35.4968 134.848 37.4224C133.818 39.348 132.358 40.842 130.465 41.9044C128.573 42.9668 126.365 43.498 123.842 43.498ZM122.995 41.506C125.684 41.506 127.826 40.51 129.419 38.518C131.046 36.526 131.86 33.9032 131.86 30.6496C131.86 27.396 131.079 24.823 129.519 22.9306C127.959 21.0382 125.834 20.092 123.145 20.092C121.352 20.092 119.758 20.5402 118.364 21.4366C117.003 22.333 115.94 23.5946 115.177 25.2214C114.446 26.8482 114.081 28.724 114.081 30.8488C114.081 34.0692 114.894 36.6588 116.521 38.6176C118.148 40.5432 120.306 41.506 122.995 41.506ZM149.098 43.498C145.878 43.498 143.421 42.8506 141.728 41.5558C140.068 40.261 139.238 38.4184 139.238 36.028C139.238 33.4716 140.251 31.5294 142.276 30.2014C144.301 28.8402 147.256 28.1596 151.14 28.1596H158.411V26.3668C158.411 24.3416 157.797 22.7978 156.568 21.7354C155.34 20.673 153.564 20.1418 151.24 20.1418C149.049 20.1418 147.289 20.6564 145.961 21.6856C144.633 22.6816 143.853 24.1092 143.62 25.9684H140.035C140.367 23.4452 141.529 21.503 143.521 20.1418C145.513 18.7806 148.169 18.1 151.489 18.1C155.207 18.1 158.046 18.8636 160.005 20.3908C161.963 21.8848 162.943 24.0594 162.943 26.9146V34.9822C162.943 37.8374 163.192 40.51 163.69 43H159.407C159.042 41.506 158.809 40.0784 158.71 38.7172C156.718 41.9044 153.514 43.498 149.098 43.498ZM150.244 41.5558C151.771 41.5558 153.149 41.2072 154.377 40.51C155.639 39.7796 156.618 38.8168 157.315 37.6216C158.046 36.4264 158.411 35.0984 158.411 33.6376V30.2014H152.385C149.464 30.2014 147.289 30.6828 145.861 31.6456C144.467 32.5752 143.77 34.0194 143.77 35.9782C143.77 37.8042 144.318 39.1986 145.413 40.1614C146.509 41.091 148.119 41.5558 150.244 41.5558ZM178.944 43.498C175.524 43.498 172.752 42.834 170.627 41.506C168.536 40.178 167.274 38.3188 166.842 35.9284H170.627C170.893 37.6548 171.756 39.016 173.217 40.012C174.711 40.9748 176.67 41.4562 179.093 41.4562C181.384 41.4562 183.21 40.9914 184.571 40.0618C185.966 39.1322 186.663 37.9038 186.663 36.3766C186.663 35.1482 186.065 34.1854 184.87 33.4882C183.675 32.7578 181.683 32.1602 178.894 31.6954C176.105 31.2306 173.881 30.716 172.221 30.1516C170.594 29.554 169.415 28.8402 168.685 28.0102C167.955 27.147 167.589 26.0846 167.589 24.823C167.589 22.7646 168.569 21.1378 170.528 19.9426C172.52 18.7142 175.292 18.1 178.844 18.1C182.297 18.1 185.086 18.764 187.211 20.092C189.369 21.3868 190.614 23.2128 190.946 25.57H187.161C186.862 23.8768 185.999 22.5488 184.571 21.586C183.144 20.6232 181.334 20.1418 179.143 20.1418C177.051 20.1418 175.358 20.5236 174.063 21.2872C172.802 22.0176 172.171 23.0136 172.171 24.2752C172.171 25.0388 172.387 25.653 172.818 26.1178C173.25 26.5826 174.03 26.9976 175.159 27.3628C176.321 27.728 178.031 28.1098 180.288 28.5082C184.14 29.1722 186.928 30.1018 188.655 31.297C190.381 32.459 191.244 34.0526 191.244 36.0778C191.244 38.4018 190.149 40.2278 187.958 41.5558C185.8 42.8506 182.795 43.498 178.944 43.498Z" fill="black"/>
</svg>
