<svg width="127" height="50" viewBox="0 0 127 50" fill="none" xmlns="http://www.w3.org/2000/svg">
<path d="M17.6852 8.14H22.8644V40.6096H44.7764V43H17.6852V8.14ZM56.4656 43.498C53.212 43.498 50.6556 42.668 48.7964 41.008C46.9704 39.3148 46.0574 36.9908 46.0574 34.036V18.598H50.639V34.534C50.639 36.7584 51.22 38.4682 52.382 39.6634C53.5772 40.8586 55.2704 41.4562 57.4616 41.4562C59.9848 41.4562 62.01 40.6428 63.5372 39.016C65.0976 37.356 65.8778 35.1814 65.8778 32.4922V18.598H70.4594V43H65.8778V38.7172C65.081 40.2112 63.8526 41.3898 62.1926 42.253C60.5326 43.083 58.6236 43.498 56.4656 43.498ZM92.2801 43L83.8639 32.9902L75.1489 43H71.8123L82.2205 30.9982L71.8123 18.598H77.0413L85.0591 28.1596L93.1765 18.598H96.4135L86.6527 30.1018L97.4095 43H92.2801ZM111.613 41.4562C113.87 41.4562 115.763 40.9084 117.29 39.8128C118.85 38.7172 119.846 37.2232 120.278 35.3308H124.013C123.382 37.8872 121.938 39.8958 119.68 41.3566C117.423 42.7842 114.667 43.498 111.414 43.498C108.691 43.498 106.301 42.9834 104.242 41.9542C102.217 40.925 100.64 39.4642 99.5114 37.5718C98.4158 35.6462 97.868 33.4218 97.868 30.8986C97.868 28.309 98.4158 26.0514 99.5114 24.1258C100.607 22.2002 102.167 20.7228 104.193 19.6936C106.251 18.6312 108.625 18.1 111.314 18.1C115.364 18.1 118.518 19.1956 120.776 21.3868C123.067 23.578 124.262 26.6656 124.362 30.6496H102.45V30.8986C102.45 34.1854 103.246 36.775 104.84 38.6674C106.434 40.5266 108.691 41.4562 111.613 41.4562ZM111.414 20.1418C108.924 20.1418 106.915 20.8888 105.388 22.3828C103.861 23.8436 102.931 25.9186 102.599 28.6078H120.029C119.664 25.8854 118.734 23.7938 117.24 22.333C115.779 20.8722 113.837 20.1418 111.414 20.1418Z" fill="black"/>
</svg>
