<svg width="24" height="24" viewBox="0 0 24 24" fill="none" xmlns="http://www.w3.org/2000/svg">
<path d="M12 24V19" stroke="black"/>
<path d="M7.09982 14.999C7.06663 14.9997 7.03335 15 7 15C4.23858 15 2 12.7614 2 10C2 7.23858 4.23858 5 7 5C7.03335 5 7.06662 5.00033 7.09982 5.00098C7.56271 2.71825 9.5807 1 12 1C14.4193 1 16.4373 2.71825 16.9002 5.00098C16.9334 5.00033 16.9666 5 17 5C19.7614 5 22 7.23858 22 10C22 12.7614 19.7614 15 17 15C16.9666 15 16.9334 14.9997 16.9002 14.999C16.4373 17.2817 14.4193 19 12 19C9.5807 19 7.56271 17.2817 7.09982 14.999Z" stroke="black"/>
</svg>
