<svg width="60" height="27" viewBox="0 0 60 27" fill="none" xmlns="http://www.w3.org/2000/svg">
<mask id="mask0_1330_5724" style="mask-type:luminance" maskUnits="userSpaceOnUse" x="0" y="0" width="60" height="24">
<path d="M0.015625 0H59.9838V23.7969H0.015625V0Z" fill="white"/>
</mask>
<g mask="url(#mask0_1330_5724)">
<path fill-rule="evenodd" clip-rule="evenodd" d="M28.3908 3.49443V9.50838H32.0998C32.9834 9.50838 33.714 9.21139 34.2915 8.61742C34.885 8.02536 35.1824 7.31811 35.1824 6.50093C35.1824 5.69976 34.8854 5.00156 34.2915 4.40632C33.714 3.79776 32.9834 3.49332 32.0998 3.493H28.3908V3.49443ZM28.3908 11.6249V18.6007H26.1758V1.37793H32.0527C33.5439 1.37793 34.8115 1.87481 35.8554 2.86857C36.9161 3.86264 37.4465 5.07343 37.4465 6.50093C37.4465 7.96015 36.9158 9.17998 35.8554 10.1561C34.8288 11.1361 33.5595 11.6234 32.0512 11.6234H28.3913L28.3908 11.6249ZM39.6848 14.9936C39.6848 15.5704 39.9299 16.0516 40.4201 16.4371C40.9089 16.8197 41.4834 17.013 42.1406 17.013C43.073 17.013 43.9016 16.6684 44.6327 15.9802C45.3647 15.2896 45.7283 14.4796 45.7283 13.55C45.0378 13.0049 44.0745 12.7324 42.8384 12.7324C41.9403 12.7324 41.1888 12.9504 40.5881 13.3835C39.9856 13.8166 39.6848 14.3515 39.6848 14.9936ZM42.5514 6.42858C44.1886 6.42922 45.4813 6.86613 46.4293 7.73932C47.3755 8.61441 47.8489 9.81345 47.8495 11.3365V18.6007H45.7297V16.9659H45.6345C44.7185 18.3124 43.4979 18.986 41.9726 18.9867C40.673 18.986 39.5855 18.601 38.7101 17.8316C37.8353 17.0615 37.3978 16.0993 37.3974 14.945C37.3974 13.7257 37.8591 12.7554 38.7824 12.0342C39.7054 11.3127 40.9376 10.9519 42.479 10.9519C43.7926 10.9519 44.8787 11.1918 45.7283 11.6734V11.167C45.7283 10.3973 45.4233 9.74429 44.8135 9.20806C44.2261 8.67952 43.461 8.39181 42.6708 8.4023C41.4334 8.4023 40.4553 8.92202 39.7324 9.96671L37.782 8.73831C38.8583 7.19881 40.4484 6.4289 42.5514 6.42858ZM60.0097 6.81409L52.6156 23.797H50.3282L53.0739 17.8554L48.2103 6.81457H50.6185L54.1343 15.282H54.1814L57.6015 6.81314L60.0097 6.81409Z" fill="white"/>
<path fill-rule="evenodd" clip-rule="evenodd" d="M19.4368 10.1216C19.4368 9.42487 19.3783 8.75189 19.266 8.10938H9.92188V11.9216H15.2747C15.1651 12.5307 14.9331 13.1113 14.5928 13.6282C14.2525 14.1451 13.811 14.5876 13.2948 14.9291V17.4035H16.4898C18.3603 15.6806 19.4368 13.1319 19.4368 10.1216Z" fill="#4285F4"/>
<path fill-rule="evenodd" clip-rule="evenodd" d="M9.92276 19.792C12.5975 19.792 14.8478 18.9158 16.4902 17.4047L13.2953 14.9284C12.4072 15.5266 11.263 15.8755 9.92228 15.8755C7.33889 15.8755 5.14434 14.1345 4.36095 11.79H1.07031V14.3396C1.89572 15.9796 3.16054 17.3581 4.72366 18.3212C6.28679 19.2842 8.08676 19.7941 9.92276 19.7939" fill="#34A853"/>
<path fill-rule="evenodd" clip-rule="evenodd" d="M4.36237 11.7897C3.94954 10.5607 3.94954 9.23036 4.36237 8.00127V5.45215H1.07173C0.376727 6.82967 0.0149779 8.35116 0.0156259 9.89408C0.0156259 11.4923 0.398756 13.002 1.07173 14.3379L4.36237 11.7883V11.7897Z" fill="#FF5F00"/>
<path fill-rule="evenodd" clip-rule="evenodd" d="M9.92476 3.91649C11.3859 3.91649 12.6938 4.41718 13.7251 5.40142V5.40237L16.5531 2.57768C14.8383 0.980432 12.5995 5.15451e-08 9.92571 5.15451e-08C8.09002 -0.000187152 6.29036 0.509551 4.72743 1.47237C3.1645 2.43519 1.89975 3.81323 1.07422 5.45282L4.36485 8.00242C5.14825 5.65747 7.3428 3.91649 9.92619 3.91649" fill="#E94235"/>
</g>
</svg>
