<svg width="73" height="23" viewBox="0 0 73 23" fill="none" xmlns="http://www.w3.org/2000/svg">
<g clip-path="url(#clip0_1330_5515)">
<path d="M8.79909 2.0127H3.19284C2.83346 2.0127 2.47409 2.3002 2.40221 2.65957L0.174087 17.0346C0.102212 17.3221 0.317837 17.5377 0.605337 17.5377H3.26471C3.62409 17.5377 3.98346 17.2502 4.05534 16.8908L4.63034 13.0096C4.70221 12.6502 4.98971 12.3627 5.42096 12.3627H7.21784C10.8835 12.3627 13.0397 10.5658 13.6147 7.04395C13.8303 5.53457 13.6147 4.3127 12.896 3.4502C12.1053 2.51582 10.6678 2.0127 8.79909 2.0127ZM9.44596 7.25957C9.15846 9.27207 7.57721 9.27207 6.13971 9.27207H5.27721L5.85221 5.53457C5.85221 5.31894 6.06784 5.17519 6.28346 5.17519H6.64284C7.64909 5.17519 8.58346 5.1752 9.08659 5.7502C9.44596 6.0377 9.58971 6.54082 9.44596 7.25957ZM25.4741 7.1877H22.8147C22.5991 7.1877 22.3835 7.33145 22.3835 7.54707L22.2397 8.26582L22.0241 7.97832C21.4491 7.11582 20.1553 6.82832 18.8616 6.82832C15.9147 6.82832 13.3991 9.05645 12.896 12.2189C12.6085 13.8002 12.9678 15.3096 13.9022 16.3158C14.6928 17.2502 15.9147 17.6814 17.2803 17.6814C19.6522 17.6814 21.0178 16.1721 21.0178 16.1721L20.8741 16.8908C20.8022 17.1783 21.0178 17.4658 21.3053 17.4658H23.7491C24.1085 17.4658 24.4678 17.1783 24.5397 16.8189L25.9772 7.61895C26.0491 7.4752 25.7616 7.1877 25.4741 7.1877ZM21.8085 12.3627C21.521 13.8721 20.371 14.9502 18.7897 14.9502C17.9991 14.9502 17.4241 14.7346 16.9928 14.2314C16.5616 13.7283 16.4178 13.0814 16.5616 12.3627C16.666 11.6389 17.0296 10.9777 17.5848 10.5018C18.14 10.0259 18.8491 9.7677 19.5803 9.7752C20.371 9.7752 20.946 10.0627 21.3772 10.4939C21.7366 10.9971 21.8803 11.6439 21.8085 12.3627ZM39.7772 7.1877H37.1178C36.8303 7.1877 36.6147 7.33145 36.471 7.54707L32.7335 13.0096L31.1522 7.7627C31.0803 7.40332 30.721 7.1877 30.4335 7.1877H27.7741C27.4866 7.1877 27.1991 7.47519 27.3428 7.83457L30.2897 16.5314L27.4866 20.4127C27.271 20.7002 27.4866 21.1314 27.846 21.1314H30.5053C30.7928 21.1314 31.0085 20.9877 31.1522 20.7721L40.1366 7.83457C40.3522 7.61895 40.1366 7.1877 39.7772 7.1877Z" fill="#003087"/>
<path d="M48.6897 2.0127H43.0835C42.7241 2.0127 42.3647 2.3002 42.2928 2.65957L40.0647 16.9627C39.9928 17.2502 40.2085 17.4658 40.496 17.4658H43.371C43.6585 17.4658 43.8741 17.2502 43.8741 17.0346L44.521 12.9377C44.5928 12.5783 44.8803 12.2908 45.3116 12.2908H47.1085C50.7741 12.2908 52.9303 10.4939 53.5053 6.97207C53.721 5.46269 53.5053 4.24082 52.7866 3.37832C51.9241 2.51582 50.5585 2.0127 48.6897 2.0127ZM49.3366 7.25957C49.0491 9.27207 47.4678 9.27207 46.0303 9.27207H45.1678L45.7428 5.53457C45.7428 5.31894 45.9585 5.17519 46.1741 5.17519H46.5335C47.5397 5.17519 48.4741 5.17519 48.9772 5.75019C49.3366 6.03769 49.4085 6.54082 49.3366 7.25957ZM65.3647 7.18769H62.7053C62.4897 7.18769 62.2741 7.33144 62.2741 7.54707L62.1303 8.26582L61.9147 7.97832C61.3397 7.11582 60.046 6.82832 58.7522 6.82832C55.8053 6.82832 53.2897 9.05644 52.7866 12.2189C52.4991 13.8002 52.8585 15.3096 53.7928 16.3158C54.5835 17.2502 55.8053 17.6814 57.171 17.6814C59.5428 17.6814 60.9085 16.1721 60.9085 16.1721L60.7647 16.8908C60.6928 17.1783 60.9085 17.4658 61.196 17.4658H63.6397C63.9991 17.4658 64.3585 17.1783 64.4303 16.8189L65.8678 7.61895C65.8678 7.47519 65.6522 7.18769 65.3647 7.18769ZM61.6272 12.3627C61.3397 13.8721 60.1897 14.9502 58.6085 14.9502C57.8178 14.9502 57.2428 14.7346 56.8116 14.2314C56.3803 13.7283 56.2366 13.0814 56.3803 12.3627C56.4848 11.6389 56.8484 10.9777 57.4036 10.5018C57.9588 10.0259 58.6679 9.7677 59.3991 9.77519C60.1897 9.77519 60.7647 10.0627 61.196 10.4939C61.6272 10.9971 61.771 11.6439 61.6272 12.3627ZM68.5272 2.37207L66.2272 16.9627C66.1553 17.2502 66.371 17.4658 66.6585 17.4658H68.9585C69.3178 17.4658 69.6772 17.1783 69.7491 16.8189L72.0491 2.51582C72.121 2.22832 71.9053 2.0127 71.6178 2.0127H69.0303C68.7428 2.0127 68.5991 2.15645 68.5272 2.37207Z" fill="#009CDE"/>
</g>
<defs>
<clipPath id="clip0_1330_5515">
<rect width="72.5938" height="23" fill="white"/>
</clipPath>
</defs>
</svg>
