<svg width="24" height="24" viewBox="0 0 24 24" fill="none" xmlns="http://www.w3.org/2000/svg">
<path fill-rule="evenodd" clip-rule="evenodd" d="M11.7669 2.40184C15.3569 2.34784 17.6039 3.80184 18.6619 6.35184C19.0109 7.19384 19.3839 8.74184 19.1039 10.0268C18.9919 10.5388 18.9599 11.0748 18.8089 11.5568C18.5009 12.5398 18.1009 13.4098 17.5709 14.1598C16.8509 15.1798 15.7609 15.8658 14.3889 16.2118C13.1769 16.5168 12.0609 16.0598 11.4129 15.5688C11.2069 15.4128 10.9299 15.2088 10.8529 14.9258H10.8239C10.7779 15.4408 10.5799 15.9878 10.4409 16.4568C10.2479 17.1068 10.2109 17.7778 9.96888 18.3858C9.7083 19.034 9.39317 19.659 9.02688 20.2538C8.84288 20.5558 8.33488 21.5888 7.96588 21.6008C7.92588 21.5228 7.90888 21.4928 7.90588 21.3558C7.78788 21.1658 7.87088 20.8478 7.81888 20.5898C7.73688 20.1898 7.67388 19.4668 7.75888 19.0598V18.4168C7.85488 17.9748 7.85088 17.5228 7.96588 17.0998C8.21588 16.1798 8.35588 15.2048 8.61388 14.2518C8.86288 13.3368 9.09088 12.3358 9.29188 11.4048C9.33688 11.1948 9.08188 10.5898 9.02688 10.3638C8.85288 9.65084 8.98488 8.66384 9.20288 8.12784C9.47788 7.45384 10.2829 6.42484 11.3249 6.68884C12.1629 6.90084 12.6959 7.80684 12.4149 8.95484C12.1199 10.1598 11.7379 11.2388 11.4719 12.4448C11.4039 12.7558 11.5219 13.0858 11.5899 13.2718C11.8379 13.9438 12.5899 14.5958 13.5939 14.3438C15.1139 13.9608 15.7869 12.5838 16.2459 11.0978C16.3699 10.6958 16.3549 10.3168 16.4519 9.87284C16.6559 8.93784 16.5699 7.54184 16.2749 6.81184C15.8029 5.64184 14.9219 4.89184 13.7119 4.48384L12.7089 4.30084C12.1489 4.17284 11.0829 4.36484 10.7049 4.48384C9.01488 5.01884 7.96788 5.91084 7.31688 7.51584C7.09488 8.06184 6.97288 8.61584 6.93388 9.38384L6.90388 9.65984C7.03388 10.3458 7.04788 10.7998 7.31688 11.3128C7.44888 11.5648 7.76388 11.7638 7.81688 12.0778C7.84888 12.2628 7.71288 12.5418 7.66988 12.6908C7.60488 12.9148 7.62888 13.1708 7.52288 13.3638C7.33088 13.7128 6.80888 13.4508 6.57988 13.3028C5.38788 12.5328 4.40488 10.3078 4.95988 8.15884C5.04488 7.82684 5.04988 7.53884 5.16588 7.23984C5.88888 5.39584 6.96788 4.26184 8.52488 3.28984C9.10788 2.92584 9.89488 2.74584 10.6169 2.55584L11.7659 2.40184H11.7669Z" fill="#2E2E2E"/>
</svg>
