<svg width="38" height="24" viewBox="0 0 38 24" fill="none" xmlns="http://www.w3.org/2000/svg">
<rect width="38" height="24" rx="3" fill="white"/>
<rect x="0.5" y="0.5" width="37" height="23" rx="2.5" stroke="black" stroke-opacity="0.07"/>
<path d="M3.2 13.5641V9.92031H3.74141V13.5641H3.2ZM1.60156 12V11.493H5.33984V12H1.60156ZM8.28918 14.8016C7.85949 14.8016 7.44986 14.7328 7.06027 14.5953C6.67069 14.4521 6.36131 14.263 6.13215 14.0281L6.43293 13.5383C6.62199 13.7388 6.8798 13.9049 7.20637 14.0367C7.53866 14.1685 7.89673 14.2344 8.28058 14.2344C8.79048 14.2344 9.1772 14.1227 9.44074 13.8992C9.71001 13.6701 9.84465 13.3721 9.84465 13.0055C9.84465 12.7477 9.78163 12.5271 9.65558 12.3437C9.53527 12.1547 9.32902 12.0086 9.03683 11.9055C8.74465 11.8023 8.34361 11.7508 7.83371 11.7508H6.55324L6.86262 8.73437H10.154V9.28437H7.11183L7.4298 8.98359L7.1634 11.5102L6.84543 11.2008H7.97121C8.5785 11.2008 9.06548 11.2753 9.43215 11.4242C9.79881 11.5732 10.0624 11.7823 10.2228 12.0516C10.3889 12.3151 10.472 12.6245 10.472 12.9797C10.472 13.3177 10.3918 13.6271 10.2314 13.9078C10.0709 14.1828 9.83032 14.4005 9.50949 14.5609C9.18866 14.7214 8.78189 14.8016 8.28918 14.8016Z" fill="#7F7F7F"/>
</svg>
