<svg width="32" height="32" viewBox="0 0 32 32" fill="none" xmlns="http://www.w3.org/2000/svg">
<path d="M5.40659 25.0468H1.33301V4H18.6664V8H26.6667L30.6667 16V25.0468H26.6667" stroke="black" stroke-width="1.33333"/>
<path d="M12 25.0469H20" stroke="black" stroke-width="1.33333"/>
<path d="M30.6663 16H18.666V8" stroke="black" stroke-width="1.33333"/>
<path d="M5.33301 24.6663C5.33301 25.5503 5.68419 26.3982 6.30931 27.0234C6.93443 27.6485 7.78229 27.9997 8.66634 27.9997C9.55039 27.9997 10.3982 27.6485 11.0234 27.0234C11.6485 26.3982 11.9997 25.5503 11.9997 24.6663C11.9997 23.7823 11.6485 22.9345 11.0234 22.3093C10.3982 21.6842 9.55039 21.333 8.66634 21.333C7.78229 21.333 6.93443 21.6842 6.30931 22.3093C5.68419 22.9345 5.33301 23.7823 5.33301 24.6663Z" stroke="black" stroke-width="1.33333"/>
<path d="M20 24.6663C20 25.5503 20.3512 26.3982 20.9763 27.0234C21.6015 27.6485 22.4493 27.9997 23.3333 27.9997C24.2173 27.9997 25.0652 27.6485 25.6904 27.0234C26.3155 26.3982 26.6667 25.5503 26.6667 24.6663C26.6667 23.7823 26.3155 22.9345 25.6904 22.3093C25.0652 21.6842 24.2173 21.333 23.3333 21.333C22.4493 21.333 21.6015 21.6842 20.9763 22.3093C20.3512 22.9345 20 23.7823 20 24.6663Z" stroke="black" stroke-width="1.33333"/>
</svg>
