<svg width="24" height="24" viewBox="0 0 24 24" fill="none" xmlns="http://www.w3.org/2000/svg">
<path d="M3.44089 17.4107L4.10432 8.86842C4.13757 8.4379 4.33206 8.03579 4.64892 7.74245C4.96578 7.44911 5.38167 7.28615 5.81347 7.28613H18.1872C18.619 7.28615 19.0349 7.44911 19.3517 7.74245C19.6686 8.03579 19.8631 8.4379 19.8963 8.86842L20.5598 17.4107C20.7483 19.8158 18.5712 21.8576 15.8215 21.8576H8.17918C5.42775 21.8576 3.25404 19.8176 3.44089 17.4107Z" stroke="#7F7F7F" stroke-width="2.57143"/>
<path d="M8.57031 5.99972C8.57031 3.86886 10.1046 2.14258 11.9989 2.14258C13.8932 2.14258 15.4275 3.86886 15.4275 5.99972V8.57115C15.4275 10.702 13.8932 12.4283 11.9989 12.4283C10.1046 12.4283 8.57031 10.702 8.57031 8.57115V5.99972Z" stroke="#7F7F7F" stroke-width="2.57143"/>
</svg>
