<svg width="47" height="19" viewBox="0 0 47 19" fill="none" xmlns="http://www.w3.org/2000/svg">
<path d="M9.095 6.266L6.765 7.452C6.233 6.535 5.5 6.065 4.48 6.065C3.37 6.065 2.815 6.40067 2.815 7.072C2.815 7.788 3.636 7.945 5.478 8.347C7.32 8.75 9.409 9.332 9.409 11.637C9.409 13.875 7.679 15.217 4.816 15.217C2.508 15.217 0.796 14.233 0 12.487L2.33 11.324C2.818 12.401 3.661 12.957 4.816 12.957C6.014 12.957 6.613 12.622 6.613 11.905C6.613 11.189 5.79 11.033 3.945 10.63C2.101 10.227 0.02 9.645 0.02 7.34C0.02 5.17 1.729 3.804 4.48 3.804C6.633 3.804 8.253 4.677 9.095 6.266ZM11.05 0H13.934V5.102C14.688 4.274 15.776 3.804 17.019 3.804C19.504 3.804 21.279 5.729 21.279 8.459V15.105H18.395V8.459C18.395 7.184 17.463 6.243 16.175 6.243C14.888 6.243 13.935 7.205 13.935 8.459V15.105H11.049L11.05 0ZM23.166 4.61C24.12 3.939 25.496 3.47 26.961 3.47C30.867 3.47 33.707 6.133 33.707 9.781C33.707 13.182 31.266 15.555 27.87 15.555C24.963 15.555 22.878 13.585 22.878 10.945C22.878 9.155 23.945 7.834 25.452 7.319L26.672 9.401C25.852 9.781 25.542 10.341 25.542 11.034C25.542 12.174 26.497 12.981 27.872 12.981C29.559 12.981 30.89 11.638 30.89 9.826C30.89 7.699 29.226 6.089 26.963 6.089C26.0724 6.08139 25.1995 6.33823 24.455 6.827L23.166 4.61ZM38.19 13.83V19H35.305V3.917H38.123V5.28C38.989 4.34 40.209 3.803 41.585 3.803C44.625 3.803 47 6.287 47 9.51C47 12.733 44.625 15.217 41.585 15.217C40.231 15.217 39.055 14.703 38.19 13.83ZM44.137 9.488C44.137 7.63 42.85 6.265 41.097 6.265C39.366 6.265 38.057 7.653 38.057 9.488C38.057 11.323 39.366 12.711 41.097 12.711C42.85 12.711 44.139 11.345 44.139 9.488H44.137Z" fill="white"/>
</svg>
